<?xml version="1.0" encoding="UTF-8"?>
<!DOCTYPE svg PUBLIC "-//W3C//DTD SVG 1.1//EN" "http://www.w3.org/Graphics/SVG/1.1/DTD/svg11.dtd">
<!-- Creator: CorelDRAW X7 -->
<svg xmlns="http://www.w3.org/2000/svg" xml:space="preserve" width="35.2754mm" height="34.6807mm" version="1.1" style="shape-rendering:geometricPrecision; text-rendering:geometricPrecision; image-rendering:optimizeQuality; fill-rule:evenodd; clip-rule:evenodd"
viewBox="0 0 3523 3463"
 xmlns:xlink="http://www.w3.org/1999/xlink">
 <defs>
  <style type="text/css">
   <![CDATA[
    .fil1 {fill:#9900CC}
    .fil0 {fill:#ED6C02}
   ]]>
  </style>
 </defs>
 <g id="Capa_x0020_1">
  <metadata id="CorelCorpID_0Corel-Layer"/>
  <path class="fil0" d="M1531 1368c12,6 17,9 28,16 -7,28 -6,21 -26,42l-877 875c-57,56 -48,35 -40,61 26,11 84,77 105,98 34,34 79,67 100,106l27 25 115 115 17 19c15,8 17,9 31,24 6,6 7,7 12,13 15,19 6,7 11,19 29,8 38,-14 58,-36 20,-23 36,-36 58,-58l796 -792 55 -59 959 954 437 -441 -950 -954 59 -60 313 -317c10,-11 16,-18 28,-29l451 -450c48,-49 102,-86 93,-115l-41 -38 -93 -92 -31 -31 -91 -92 -33 -31 -93 -94c-8,-6 -13,-9 -21,-18 -15,-16 -8,-6 -15,-23 -22,-6 -14,-7 -33,10l-198 200c-101,99 -628,639 -680,676l-61 59 -953 -950 -440 435 465 468c54,52 444,438 458,465z"/>
  <path class="fil1" d="M1818 1458l605 1 -2 463c-201,22 -403,49 -603,67l0 -531zm749 0l513 2c-17,112 -51,281 -82,390 -50,12 -346,47 -433,55l2 -447zm-887 -1c4,88 -3,489 -3,549 -11,4 -354,51 -370,49 -42,-99 -154,-515 -168,-597l541 -1zm742 -620l3 477c-5,19 2,9 -10,21l-599 -4c1,-81 1,-424 3,-494 55,-1 544,-2 603,0zm144 0c111,-2 551,6 624,5l1 26c5,50 -69,332 -76,448l-551 2 2 -481zm-1480 476c-12,-65 -43,-152 -64,-222 -24,-83 -53,-179 -75,-251 27,-3 659,1 730,-4 -3,78 6,411 3,494 -164,2 -368,5 -534,6 -33,0 -63,1 -60,-23zm-827 -978l231 1 336 1128c58,191 110,376 167,559 67,210 47,143 -5,273 -48,120 -41,256 48,354 50,55 114,75 185,95 141,41 1448,-67 1726,-81 119,-1 253,29 276,-90 6,-34 -2,-64 -13,-85 -30,-54 -82,-55 -136,-55 -179,-1 -1894,194 -1878,47 -8,-75 -4,-97 19,-116 494,-68 1125,-151 1613,-196 77,-4 326,-27 372,-53 109,-63 88,-238 138,-418 18,-65 30,-172 44,-240l76 -406c13,-110 99,-342 49,-424l-38 -46c-23,-17 -4,-6 -31,-15 -96,-33 -724,-17 -888,-17l-1689 0c-18,-57 -30,-100 -44,-148 -15,-51 -70,-265 -98,-302 -57,-73 -126,-62 -207,-62 -78,-1 -336,-6 -392,5 -122,25 -169,182 -55,264 27,19 36,26 83,28 36,1 75,0 111,0z"/>
  <path class="fil1" d="M2618 3326c10,16 3,5 10,15l60 59c151,123 343,47 418,-59 52,-73 54,-129 49,-218 -3,-51 -18,-84 -41,-115 -23,-34 -37,-53 -68,-76 -69,-50 -187,-78 -278,-46l-70 39c-35,24 -65,56 -85,91 -28,50 -58,148 -41,209l46 101z"/>
  <path class="fil1" d="M897 3225c1,3 6,11 11,26 33,95 69,134 154,178 114,58 238,31 327,-45 1,-1 3,-3 5,-4 1,-1 3,-3 4,-4l24 -28c51,-71 67,-138 57,-234 -20,-190 -276,-317 -457,-191 -83,58 -158,188 -125,302z"/>
 </g>
</svg>
